<svg xmlns="http://www.w3.org/2000/svg" viewBox="0 0 310.62 187.36"><defs><style>.cls-1,.cls-8{fill:#ca4f13;}.cls-2{fill:#ffcf91;}.cls-3,.cls-4{fill:#f2af72;}.cls-4{opacity:0.7;}.cls-5{fill:#c4eceb;}.cls-6{fill:#fbb03b;opacity:0.5;}.cls-7{fill:#87afad;}.cls-8,.cls-9{opacity:0.85;}.cls-9{fill:#c14514;}</style></defs><title>app_icon_</title><g id="Layer_2" data-name="Layer 2"><g id="Layer_1-2" data-name="Layer 1"><g id="Colored_1" data-name="Colored 1"><path class="cls-1" d="M180.07,18.75c.05.54.08,1.09.08,1.65l-1.06,11.28-2.92,31.14h0l-.24,2.52L173.19,94h.05l-2.92,31.13-2.92,31.14-2.93,31.13h0L135.8,174.9l-28.69-12.46L78.43,150a.11.11,0,0,0,0-.06L50.92,138l-1.18-.51L21.06,125.05l-10.91-4.74c-.34-.19-.66-.38-1-.59A19.74,19.74,0,0,1,1.65,95.34l2.09-4.82A188.23,188.23,0,0,1,136.26,1.84Q144.7.55,153.19,0l9.19.88A19.75,19.75,0,0,1,180.07,18.75Z"/><path class="cls-2" d="M3.26,113.86S6,118,9.16,119.72s11-4.48,10.79-16,3.34-13.17,9.5-13.17,9.84-4,9.84-10.17,5.33-4.33,13-4.33S63.62,61.9,63.62,59.4s2.46-18.9,7.5-21.5c2.14-1.1,7.6-2,14.5,3.34,5.14,3.95,3.83-9.34,7.17-13.84s8,.5,14.66-1.5,4.84-15,18.17-15.5,26.17,4.84,33.33,2.34,14.17,8.66,18.17,8.66c4.9,0,1.83-7.63,1.83-7.63S176.1-.89,153.19,0C122.54,2.24,51,12.74,3.74,90.52-.84,98.53-1.46,106.4,3.26,113.86Z"/><path class="cls-3" d="M63,47S51,71.71,56,71.11,61.19,52.74,63,47Z"/><path class="cls-4" d="M12.48,83.61s-14.81,21.46-7.39,24S10.53,89.35,12.48,83.61Z"/><g id="dot"><circle class="cls-5" cx="105.97" cy="64.88" r="2.96"/><circle class="cls-5" cx="146.62" cy="107.44" r="2.96"/><circle class="cls-5" cx="146.62" cy="140.44" r="2.96"/><circle class="cls-5" cx="105.97" cy="105.95" r="2.96"/><circle class="cls-5" cx="63.04" cy="93.7" r="2.96"/><circle class="cls-5" cx="91.77" cy="133.58" r="2.96"/><circle class="cls-5" cx="150.95" cy="64.88" r="2.96"/></g><path class="cls-4" d="M149.79,3.15S172,1.4,177,14.32c.91,3.25-10.35-7.87-15.63-7.87s-14.18,1.07-14.18-.87S149.79,3.15,149.79,3.15Z"/><path class="cls-6" d="M301.43,158.92c-.39.16-.78.31-1.18.44l-8.44,1.83-23.28,5.05h0l-1.88.41-21.4,4.59s0,0,0,0L222,176.33l-23.28,5-23.27,5.05v0l2.43-23.67,2.45-23.69,2.44-23.69h.05l2.29-22.72.1-1L187.64,68l.93-9c.06-.28.12-.57.2-.85a15,15,0,0,1,16-11.07l4,.41a143.42,143.42,0,0,1,94.89,75.77c1.92,3.89,3.66,7.86,5.2,11.88l1.48,6.87A15,15,0,0,1,301.43,158.92Z"/><g id="dot-2" data-name="dot"><circle class="cls-7" cx="234.07" cy="157.03" r="2.24"/><circle class="cls-7" cx="203.28" cy="124.8" r="2.24"/><circle class="cls-7" cx="203.28" cy="99.8" r="2.24"/><circle class="cls-7" cx="234.07" cy="125.93" r="2.24"/><circle class="cls-7" cx="266.58" cy="135.2" r="2.24"/><circle class="cls-7" cx="244.82" cy="105" r="2.24"/><circle class="cls-7" cx="200" cy="157.03" r="2.24"/></g><path class="cls-8" d="M191.45,52.54a16,16,0,0,0-2.82,5.57c-.51,2.65,5.73,6.77,13.89,4s10.16-.67,11.58,3.73,5.13,6.08,9.52,4.66,4.32,2.8,6.1,8.27,12.71,4.8,14.5,4.23,14-2.61,17.06.38c1.28,1.27,3.16,5,1,11.11-1.63,4.57,7.54.57,11.52,1.91s1.49,5.82,4.46,10.11,11.81,0,15.25,9.37,0,23.18,6,24.31-1.27,15.32-.35,18.17c1.13,3.49,8.31-4.09,8.31-4.09s6.45-5.21.49-21.33c-8.64-21.34-33.4-69.75-99.76-85.45C201.43,46.08,195.67,47.45,191.45,52.54Z"/><path class="cls-9" d="M240.62,64.88S231.79,57.77,226,60s-.83,4.9,3.34,6.57,1.21,7.83,7,10,22.48,4.33,18.14-1.33S247.62,72.85,240.62,64.88Z"/></g></g></g></svg>